<svg width="544" height="99" viewBox="0 0 544 99" fill="none" xmlns="http://www.w3.org/2000/svg">
<path d="M55.8013 53.6285C55.8013 53.6285 56.0436 65.2768 64.6251 70.7432L73.2066 76.2039C73.2066 76.2039 65.7464 70.5628 65.0364 65.2374L64.3264 59.9063C64.3264 59.9063 66.4901 70.1684 73.8771 75.0824C73.8771 75.0824 72.2431 68.1847 72.4572 64.4203C72.6713 60.6558 68.8567 57.7029 64.4673 55.4205C60.0779 53.1382 56.0323 51.4138 56.145 50.3769C56.2577 49.3343 55.8013 53.6341 55.8013 53.6341V53.6285Z" fill="url(#paint0_linear_580_1941)"/>
<path d="M100.997 46.5961C100.997 46.5961 101.532 64.3588 89.209 72.671L76.886 80.9833C76.886 80.9833 87.5298 72.4005 88.1722 64.2743L88.8145 56.1481C88.8145 56.1481 86.386 71.7863 75.8042 79.2701C75.8042 79.2701 77.7031 68.7544 77.0889 63.0232C76.4804 57.2864 81.9234 52.7837 88.2623 49.3123C94.6013 45.8409 100.478 43.2205 100.23 41.6313C99.9823 40.0477 100.991 46.5961 100.991 46.5961H100.997Z" fill="url(#paint1_linear_580_1941)"/>
<path d="M35.7425 67.6104C35.7425 67.6104 35.9622 78.0584 43.6591 82.9612L51.356 87.8584C51.356 87.8584 44.6621 82.7978 44.0253 78.019L43.3886 73.2402C43.3886 73.2402 45.3326 82.4428 51.9532 86.8553C51.9532 86.8553 50.4883 80.6676 50.6798 77.292C50.8714 73.9164 47.4512 71.2678 43.5126 69.2165C39.574 67.1709 35.9453 65.6211 36.0467 64.6913C36.1481 63.7558 35.7368 67.6104 35.7368 67.6104H35.7425Z" fill="url(#paint2_linear_580_1941)"/>
<path d="M92.1675 28.8949C92.9451 30.9856 91.8801 33.3186 89.7897 34.0963C87.6992 34.874 85.3665 33.8089 84.5889 31.7182C83.8113 29.6275 85.4792 22.5269 85.4792 22.5269C85.4792 22.5269 91.3843 26.7985 92.1675 28.8949Z" fill="url(#paint3_linear_580_1941)"/>
<path d="M70.9307 25.7957C71.7082 27.8865 70.6433 30.2195 68.5529 30.9972C66.4624 31.7749 64.1297 30.7098 63.3521 28.6191C62.5745 26.5283 64.2424 19.4277 64.2424 19.4277C64.2424 19.4277 70.1475 23.6994 70.9307 25.7957Z" fill="url(#paint4_linear_580_1941)"/>
<path d="M51.6377 40.8865C52.4153 42.9773 51.3503 45.3103 49.2599 46.088C47.1694 46.8657 44.8367 45.8006 44.0591 43.7099C43.2816 41.6192 44.9494 34.5186 44.9494 34.5186C44.9494 34.5186 50.8545 38.7902 51.6377 40.8865Z" fill="url(#paint5_linear_580_1941)"/>
<path d="M48.5554 98.6612C60.5008 98.154 71.1502 92.6482 78.9034 84.0712C73.066 87.1988 66.4904 89.0923 59.4865 89.391C33.8378 90.4843 12.1276 69.8756 10.995 43.3555C10.2963 26.9959 17.5988 12.2086 29.3188 3.02295C11.9754 10.58 0.131472 29.4699 1.04992 51.0421C2.21628 78.4076 23.4813 99.7319 48.5497 98.6612H48.5554Z" fill="#76E9C3" stroke="url(#paint6_linear_580_1941)" stroke-width="0.41" stroke-miterlimit="10"/>
<path d="M25.7012 33.9838C29.3411 15.4039 47.3437 3.29341 65.9211 6.92823C70.733 7.86935 75.1111 9.77974 78.8976 12.4115C74.3166 7.01277 67.9439 3.07363 60.4555 1.60842C42.9149 -1.82353 25.9153 9.61068 22.4838 27.1537C20.9117 35.1954 22.4613 43.1244 26.2984 49.6896C24.9236 44.7305 24.6531 39.3825 25.7068 33.9894L25.7012 33.9838Z" fill="url(#paint7_linear_580_1941)" stroke="#76E9C3" stroke-width="0.42" stroke-miterlimit="10"/>
<g clip-path="url(#clip0_580_1941)">
<path d="M158.888 19C163.862 19 168.836 20.7561 172.359 24.2798C175.985 27.8034 177.231 32.6753 177.231 37.6491C177.231 45.1156 174.229 52.4688 168.734 57.6465C164.904 61.1702 159.817 63.9687 154.639 63.9687C148.215 63.9687 141.27 59.0968 141.27 57.2273C141.27 57.1254 141.474 56.8081 141.689 56.8081C141.995 56.8081 142.516 57.5333 143.343 57.8392C145.519 58.6662 148.011 59.0855 149.869 59.0855C159.919 59.0855 167.385 48.9338 167.385 39.394C167.385 33.0718 163.556 26.9536 156.611 26.9536C150.39 26.9536 144.386 30.8965 141.066 35.9723C139.196 38.8728 138.471 41.9772 138.471 45.3988V77.3154C138.471 80.737 136.715 83.2183 132.976 83.2183C129.555 83.2183 127.9 81.1449 127.9 77.3154V25.3221C127.9 22.1044 127.799 20.7675 125.929 20.0424C125.408 19.8384 125 19.7364 125 19.5212C125 19.102 125.827 19 127.595 19C130.597 19 135.673 19.3059 137.44 22.0024C138.165 23.1468 138.471 24.1778 138.471 27.8034V30.6019C142.924 23.7586 150.594 19 158.888 19Z" fill="url(#paint8_linear_580_1941)"/>
<path d="M188.833 22.7413C188.833 19.8409 188.833 17.8694 187.485 17.2463C186.964 17.0424 186.035 16.6231 186.035 16.5212C186.035 16.102 186.76 16 188.629 16C191.632 16 196.402 16.102 198.271 19.0024C198.996 20.1468 199.415 21.1778 199.415 24.8034V62.7248C199.415 66.9736 199.415 71.5282 201.387 75.471C202.837 78.1676 205.114 80.8641 207.913 82.0991C208.117 82.201 208.219 82.303 208.219 82.405C208.219 82.7109 208.015 82.8242 207.698 82.8242C202.622 82.8242 197.229 81.5779 193.501 77.9523C189.252 73.9075 188.833 67.5854 188.833 61.9884V22.7413Z" fill="url(#paint9_linear_580_1941)"/>
<path d="M228.839 80.8953C218.37 80.8953 211.844 70.5284 211.844 60.9998C211.844 48.4576 221.588 38 234.334 38C241.28 38 246.661 41.2177 249.879 47.4265C251.125 49.7039 252.156 52.8196 252.156 55.1989C252.156 55.6181 252.156 56.7511 251.533 56.7511C251.329 56.7511 251.012 55.924 250.389 54.6777C249.97 53.8506 249.244 52.9216 248.837 52.4004C245.834 48.7748 241.483 46.2822 236.408 46.2822C227.808 46.2822 220.138 53.5334 220.138 62.3481C220.138 68.6702 224.488 73.021 230.913 73.021C234.742 73.021 240.86 70.9476 240.86 66.1776V65.1466C240.86 61.521 243.138 58.2013 246.978 58.2013C250.819 58.2013 252.576 61.2038 252.677 64.8294C252.677 69.1801 252.983 73.5308 255.272 77.3717C256.518 79.3431 257.651 80.4761 259.521 81.7224C259.827 81.9263 260.767 82.4475 260.767 82.5495C260.767 82.8554 260.246 82.8554 259.94 82.8554C254.037 82.8554 247.194 80.4761 243.987 75.185C239.739 78.6066 234.244 80.884 228.862 80.884L228.839 80.8953Z" fill="url(#paint10_linear_580_1941)"/>
<path d="M289.353 38.0906C296.4 38.0906 302.824 43.4837 304.693 50.0098C305.52 52.9102 305.622 56.7511 305.622 60.3767V64.3195C305.622 69.0895 305.928 73.7461 308.84 78.0968C309.871 79.751 310.914 80.3741 312.568 81.5184C313.191 81.9376 313.712 82.2436 313.712 82.3455C313.712 82.7647 313.304 82.7647 312.885 82.7647C307.911 82.7647 302.518 81.4165 298.994 77.8928C295.165 74.2673 294.326 68.7722 294.326 63.7984V57.6802C294.326 52.1851 294.021 44.832 286.656 44.832C279.292 44.832 278.578 52.1851 278.578 57.7821V74.4712C278.578 77.8928 276.924 80.3741 273.185 80.3741C269.763 80.3741 268.007 77.6776 268.007 74.4712V44.4241C268.007 42.1468 268.007 39.8694 266.874 39.3483C266.251 39.0424 265.22 38.7251 265.22 38.5212C265.22 38.102 266.047 38 267.814 38C270.613 38 273.932 38.3059 276.312 39.7561C277.66 40.5832 278.283 41.7276 278.487 43.1778C281.184 40.0734 285.228 38.102 289.364 38.102L289.353 38.0906Z" fill="url(#paint11_linear_580_1941)"/>
<path d="M343.571 71.7834C348.964 71.7834 355.071 68.0558 355.071 62.1416C355.071 55.7175 348.545 53.5421 343.571 51.9899C334.247 48.8855 324.095 45.5658 324.095 34.5758C324.095 23.5857 334.655 18 344.093 18C351.559 18 365.654 22.1468 365.654 31.4713C365.654 34.995 363.263 37.5895 359.751 37.5895C355.91 37.5895 353.848 34.893 353.632 30.8595C353.428 26.3049 350.834 23.5064 346.064 23.5064C339.946 23.5064 335.595 28.1743 335.595 34.4964C335.595 40.3994 338.915 43.6171 344.5 45.0673C353.927 47.5599 367.194 52.3185 367.194 64.4416C367.194 69.6194 364.294 74.2873 360.351 77.4937C355.581 81.2213 349.576 82.9887 343.56 82.9887C333.408 82.9887 323.042 77.709 323.042 66.2997C323.042 61.1219 325.523 55.9328 326.248 55.9328C326.452 55.9328 326.667 56.0347 326.667 56.352C326.667 56.9751 326.361 58.4253 326.361 58.8446C326.361 67.2401 336.207 71.7947 343.56 71.7947L343.571 71.7834Z" fill="url(#paint12_linear_580_1941)"/>
<path d="M398.386 41C404.504 41 411.54 44.8295 411.54 51.5709C411.54 59.4452 399.723 64.521 393.095 64.521C391.645 64.521 391.123 64.521 391.123 63.9998C391.123 63.6939 391.327 63.6939 391.849 63.5806C396.403 62.6516 400.448 59.2299 400.448 54.1541C400.448 51.4576 398.794 49.1802 395.995 49.1802C388.529 49.1802 383.351 56.8506 383.351 63.6939C383.351 70.5372 387.804 74.9899 394.647 74.9899C401.49 74.9899 409.047 70.7412 411.223 65.1442C411.325 64.8383 411.642 64.1132 411.846 64.1132C412.367 64.1132 412.469 64.9402 412.469 66.6057C412.469 77.0746 402.827 83.3968 393.095 83.3968C382.116 83.3968 374.344 75.0013 374.344 64.1245C374.344 51.2763 385.844 41.0113 398.386 41.0113V41Z" fill="url(#paint13_linear_580_1941)"/>
<path d="M442.437 41C448.555 41 455.591 44.8295 455.591 51.5709C455.591 59.4452 443.774 64.521 437.146 64.521C435.695 64.521 435.174 64.521 435.174 63.9998C435.174 63.6939 435.378 63.6939 435.899 63.5806C440.454 62.6516 444.499 59.2299 444.499 54.1541C444.499 51.4576 442.845 49.1802 440.046 49.1802C432.58 49.1802 427.402 56.8506 427.402 63.6939C427.402 70.5372 431.855 74.9899 438.698 74.9899C445.541 74.9899 453.098 70.7412 455.274 65.1442C455.376 64.8383 455.693 64.1132 455.897 64.1132C456.418 64.1132 456.52 64.9402 456.52 66.6057C456.52 77.0746 446.878 83.3968 437.146 83.3968C426.167 83.3968 418.395 75.0013 418.395 64.1245C418.395 51.2763 429.894 41.0113 442.437 41.0113V41Z" fill="url(#paint14_linear_580_1941)"/>
<path d="M481.287 80.3543C469.266 80.3543 462.944 69.9873 462.944 58.9066C462.944 53.2076 464.813 47.6106 468.847 43.5658C472.268 40.1442 476.925 37.9688 481.797 37.9688C488.017 37.9688 493.614 43.9737 493.614 44.8121C493.614 45.118 493.41 45.2313 493.195 45.2313C492.98 45.2313 492.051 44.5062 490.498 43.7811C488.629 42.954 487.394 42.7501 486.148 42.7501C478.693 42.7501 474.852 51.0436 474.852 57.5697C474.852 64.0957 477.956 71.9701 485.321 71.9701C490.816 71.9701 495.472 67.4154 495.472 61.9204V22.2202C495.472 19.9428 495.472 17.5522 493.92 17.1443C493.093 16.9404 492.674 16.7251 492.674 16.5212C492.674 16 493.603 16 495.268 16C498.271 16 503.143 16.3059 505.012 19.0024C505.839 20.1468 506.043 20.8719 506.043 24.8034V62.5209C506.043 66.8716 506.043 71.3243 508.014 75.2671C509.465 77.9636 511.742 80.6602 514.541 81.8951C514.745 81.9971 514.846 82.0991 514.846 82.201C514.846 82.507 514.643 82.6203 514.325 82.6203C506.972 82.6203 499.608 80.0257 496.809 72.5706C493.184 77.4425 487.383 80.3429 481.264 80.3429L481.287 80.3543Z" fill="url(#paint15_linear_580_1941)"/>
</g>
<defs>
<linearGradient id="paint0_linear_580_1941" x1="61.2116" y1="68.9666" x2="68.1724" y2="57.3053" gradientUnits="userSpaceOnUse">
<stop stop-color="#98E976"/>
<stop offset="1" stop-color="#76E9C3"/>
</linearGradient>
<linearGradient id="paint1_linear_580_1941" x1="94.1555" y1="70.0767" x2="82.9252" y2="52.294" gradientUnits="userSpaceOnUse">
<stop stop-color="#98E976"/>
<stop offset="1" stop-color="#76E9C3"/>
</linearGradient>
<linearGradient id="paint2_linear_580_1941" x1="40.5982" y1="81.3647" x2="46.8427" y2="70.9034" gradientUnits="userSpaceOnUse">
<stop stop-color="#98E976"/>
<stop offset="1" stop-color="#76E9C3"/>
</linearGradient>
<linearGradient id="paint3_linear_580_1941" x1="83.8331" y1="29.7529" x2="91.4105" y2="26.9308" gradientUnits="userSpaceOnUse">
<stop stop-color="#98E976"/>
<stop offset="1" stop-color="#76E9C3"/>
</linearGradient>
<linearGradient id="paint4_linear_580_1941" x1="62.596" y1="26.654" x2="70.1787" y2="23.83" gradientUnits="userSpaceOnUse">
<stop stop-color="#98E976"/>
<stop offset="1" stop-color="#76E9C3"/>
</linearGradient>
<linearGradient id="paint5_linear_580_1941" x1="43.3046" y1="41.7421" x2="50.8819" y2="38.92" gradientUnits="userSpaceOnUse">
<stop stop-color="#98E976"/>
<stop offset="1" stop-color="#76E9C3"/>
</linearGradient>
<linearGradient id="paint6_linear_580_1941" x1="83.1551" y1="59.3954" x2="0.535325" y2="44.6297" gradientUnits="userSpaceOnUse">
<stop stop-color="#98E976"/>
<stop offset="1" stop-color="#76E9C3"/>
</linearGradient>
<linearGradient id="paint7_linear_580_1941" x1="69.7411" y1="35.7212" x2="25.3728" y2="18.3042" gradientUnits="userSpaceOnUse">
<stop stop-color="#98E976"/>
<stop offset="1" stop-color="#76E9C3"/>
</linearGradient>
<linearGradient id="paint8_linear_580_1941" x1="125" y1="51.1205" x2="177.231" y2="51.1205" gradientUnits="userSpaceOnUse">
<stop stop-color="#98E976"/>
<stop offset="1" stop-color="#76E9C3"/>
</linearGradient>
<linearGradient id="paint9_linear_580_1941" x1="186.035" y1="49.4234" x2="208.219" y2="49.4234" gradientUnits="userSpaceOnUse">
<stop stop-color="#98E976"/>
<stop offset="1" stop-color="#76E9C3"/>
</linearGradient>
<linearGradient id="paint10_linear_580_1941" x1="211.844" y1="60.4334" x2="260.756" y2="60.4334" gradientUnits="userSpaceOnUse">
<stop stop-color="#98E976"/>
<stop offset="1" stop-color="#76E9C3"/>
</linearGradient>
<linearGradient id="paint11_linear_580_1941" x1="265.208" y1="60.3654" x2="313.712" y2="60.3654" gradientUnits="userSpaceOnUse">
<stop stop-color="#98E976"/>
<stop offset="1" stop-color="#76E9C3"/>
</linearGradient>
<linearGradient id="paint12_linear_580_1941" x1="323.053" y1="50.483" x2="367.194" y2="50.483" gradientUnits="userSpaceOnUse">
<stop stop-color="#98E976"/>
<stop offset="1" stop-color="#76E9C3"/>
</linearGradient>
<linearGradient id="paint13_linear_580_1941" x1="374.344" y1="62.1984" x2="412.48" y2="62.1984" gradientUnits="userSpaceOnUse">
<stop stop-color="#98E976"/>
<stop offset="1" stop-color="#76E9C3"/>
</linearGradient>
<linearGradient id="paint14_linear_580_1941" x1="418.395" y1="62.1984" x2="456.52" y2="62.1984" gradientUnits="userSpaceOnUse">
<stop stop-color="#98E976"/>
<stop offset="1" stop-color="#76E9C3"/>
</linearGradient>
<linearGradient id="paint15_linear_580_1941" x1="462.944" y1="49.3215" x2="514.869" y2="49.3215" gradientUnits="userSpaceOnUse">
<stop stop-color="#98E976"/>
<stop offset="1" stop-color="#76E9C3"/>
</linearGradient>
<clipPath id="clip0_580_1941">
<rect width="418.869" height="67.2547" fill="white" transform="translate(125 16.2227)"/>
</clipPath>
</defs>
</svg>
